<svg width="71" height="15" viewBox="0 0 71 15" fill="none" xmlns="http://www.w3.org/2000/svg">
<path d="M0.82 14.5L7.06 0.499999H10.26L16.52 14.5H13.12L8 2.14H9.28L4.14 14.5H0.82ZM3.94 11.5L4.8 9.04H12L12.88 11.5H3.94ZM17.9725 14.5V0.499999H21.2125V14.5H17.9725ZM29.135 14.74C28.015 14.74 26.9417 14.5933 25.915 14.3C24.8883 13.9933 24.0617 13.6 23.435 13.12L24.535 10.68C25.135 11.1067 25.8417 11.46 26.655 11.74C27.4817 12.0067 28.315 12.14 29.155 12.14C29.795 12.14 30.3083 12.08 30.695 11.96C31.095 11.8267 31.3883 11.6467 31.575 11.42C31.7617 11.1933 31.855 10.9333 31.855 10.64C31.855 10.2667 31.7083 9.97333 31.415 9.76C31.1217 9.53333 30.735 9.35333 30.255 9.22C29.775 9.07333 29.2417 8.94 28.655 8.82C28.0817 8.68667 27.5017 8.52667 26.915 8.34C26.3417 8.15333 25.815 7.91333 25.335 7.62C24.855 7.32667 24.4617 6.94 24.155 6.46C23.8617 5.98 23.715 5.36667 23.715 4.62C23.715 3.82 23.9283 3.09333 24.355 2.44C24.795 1.77333 25.4483 1.24667 26.315 0.859999C27.195 0.46 28.295 0.26 29.615 0.26C30.495 0.26 31.3617 0.366666 32.215 0.579999C33.0683 0.779999 33.8217 1.08667 34.475 1.5L33.475 3.96C32.8217 3.58667 32.1683 3.31333 31.515 3.14C30.8617 2.95333 30.2217 2.86 29.595 2.86C28.9683 2.86 28.455 2.93333 28.055 3.08C27.655 3.22667 27.3683 3.42 27.195 3.66C27.0217 3.88667 26.935 4.15333 26.935 4.46C26.935 4.82 27.0817 5.11333 27.375 5.34C27.6683 5.55333 28.055 5.72667 28.535 5.86C29.015 5.99333 29.5417 6.12667 30.115 6.26C30.7017 6.39333 31.2817 6.54667 31.855 6.72C32.4417 6.89333 32.975 7.12667 33.455 7.42C33.935 7.71333 34.3217 8.1 34.615 8.58C34.9217 9.06 35.075 9.66667 35.075 10.4C35.075 11.1867 34.855 11.9067 34.415 12.56C33.975 13.2133 33.315 13.74 32.435 14.14C31.5683 14.54 30.4683 14.74 29.135 14.74ZM37.2889 14.5V0.499999H39.9689L45.9289 10.38H44.5089L50.3689 0.499999H53.0289L53.0689 14.5H50.0289L50.0089 5.16H50.5689L45.8889 13.02H44.4289L39.6489 5.16H40.3289V14.5H37.2889ZM54.5505 14.5L60.7905 0.499999H63.9905L70.2505 14.5H66.8505L61.7305 2.14H63.0105L57.8705 14.5H54.5505ZM57.6705 11.5L58.5305 9.04H65.7305L66.6105 11.5H57.6705Z" fill="#EC1425"/>
</svg>
