<svg width="24" height="25" viewBox="0 0 24 25" fill="none" xmlns="http://www.w3.org/2000/svg">
<path d="M21.0375 17.1421L17.8626 16.7593C17.1 16.6669 16.35 16.9441 15.8125 17.5116L13.5126 19.9403C9.97505 18.0396 7.07505 14.9906 5.27505 11.242L7.58755 8.80016C8.12505 8.23259 8.38755 7.44064 8.30005 6.63549L7.93755 3.30928C7.78755 1.97616 6.72505 0.973022 5.45005 0.973022H3.28755C1.87505 0.973022 0.700051 2.21375 0.787551 3.70526C1.45005 14.9774 9.98755 23.9792 20.65 24.6788C22.0625 24.7712 23.2375 23.5305 23.2375 22.039V19.7555C23.25 18.4224 22.3 17.3004 21.0375 17.1421Z" fill="white"/>
</svg>
