<svg width="56" height="56" viewBox="0 0 56 56" fill="none" xmlns="http://www.w3.org/2000/svg">
<path opacity="0.4" d="M36.8797 4.23074H15.3973C6.0865 4.23074 0.5 9.79025 0.5 19.1281V40.5834C0.5 49.9482 6.0865 55.5078 15.3973 55.5078H36.8527C46.1905 55.5078 51.75 49.9482 51.75 40.6104V19.1281C51.777 9.79025 46.1905 4.23074 36.8797 4.23074Z" fill="white"/>
<path d="M51.8297 4.17619C46.9989 -0.681629 42.276 -0.789581 37.3102 4.17619L34.2606 7.19884C33.9907 7.46872 33.9097 7.84655 34.0177 8.19739C35.9069 14.8094 41.1965 20.0991 47.8085 21.9882C47.8895 22.0152 48.0244 22.0152 48.1054 22.0152C48.3753 22.0152 48.6451 21.9072 48.8341 21.7183L51.8297 18.6957C54.2856 16.2398 55.5001 13.8918 55.5001 11.4899C55.5001 9.061 54.2856 6.65908 51.8297 4.17619Z" fill="white"/>
<path d="M43.3004 24.2552C42.5717 23.9044 41.87 23.5535 41.2223 23.1487C40.6825 22.825 40.1428 22.4741 39.63 22.0963C39.1982 21.8264 38.7124 21.4216 38.2266 21.0168C38.1727 20.9898 38.0107 20.8549 37.7948 20.6389C36.9582 19.9642 36.0676 19.0467 35.231 18.0481C35.177 17.9941 35.0151 17.8322 34.8801 17.5893C34.6102 17.2924 34.2054 16.7797 33.8546 16.2129C33.5577 15.8351 33.2069 15.2953 32.883 14.7286C32.4782 14.0539 32.1274 13.3792 31.8035 12.6775C31.4527 11.9219 31.1828 11.2202 30.9399 10.5455L16.4205 25.0649C15.4759 26.0094 14.5583 27.7906 14.3694 29.113L13.2089 37.1554C12.966 38.8557 13.4248 40.448 14.4773 41.5005C15.3679 42.3911 16.5824 42.8499 17.9318 42.8499C18.2286 42.8499 18.5255 42.8229 18.8224 42.7959L26.8377 41.6624C28.1601 41.4735 29.9413 40.5829 30.8859 39.6113L45.4054 25.0918C44.7307 24.8759 44.056 24.5791 43.3004 24.2552Z" fill="white"/>
</svg>
