<svg width="30" height="31" viewBox="0 0 30 31" fill="none" xmlns="http://www.w3.org/2000/svg">
<path d="M5 23H25C25.6875 23 26.25 22.4375 26.25 21.75C26.25 21.0625 25.6875 20.5 25 20.5H5C4.3125 20.5 3.75 21.0625 3.75 21.75C3.75 22.4375 4.3125 23 5 23ZM5 16.75H25C25.6875 16.75 26.25 16.1875 26.25 15.5C26.25 14.8125 25.6875 14.25 25 14.25H5C4.3125 14.25 3.75 14.8125 3.75 15.5C3.75 16.1875 4.3125 16.75 5 16.75ZM3.75 9.25C3.75 9.9375 4.3125 10.5 5 10.5H25C25.6875 10.5 26.25 9.9375 26.25 9.25C26.25 8.5625 25.6875 8 25 8H5C4.3125 8 3.75 8.5625 3.75 9.25Z" fill="#83A9AC"/>
</svg>
