<svg width="31" height="31" viewBox="0 0 31 31" fill="none" xmlns="http://www.w3.org/2000/svg">
<rect width="31" height="31" rx="5" fill="#F1F1F1"/>
<path d="M10.7642 19.375H12.4864V14.2084H10.7642V19.375ZM20.2364 14.6389C20.2364 14.1653 19.8489 13.7778 19.3753 13.7778H16.6585L17.0675 11.8102L17.0804 11.6724C17.0804 11.4959 17.0072 11.3322 16.891 11.216L16.4346 10.7639L13.6015 13.6013C13.4422 13.7563 13.3475 13.9716 13.3475 14.2084V18.5139C13.3475 18.9875 13.735 19.375 14.2086 19.375H18.0836C18.441 19.375 18.7467 19.1597 18.8758 18.8498L20.1761 15.8143C20.2149 15.7153 20.2364 15.612 20.2364 15.5V14.6389Z" fill="#AD555C"/>
</svg>
