<svg width="40" height="40" viewBox="0 0 40 40" fill="none" xmlns="http://www.w3.org/2000/svg">
<path d="M20 3.33337C13.55 3.33337 8.33333 8.55004 8.33333 15C8.33333 17.9 9.16666 20.6167 10.6833 23.0667C12.2667 25.6334 14.35 27.8334 15.95 30.4C16.7333 31.65 17.3 32.8167 17.9 34.1667C18.3333 35.0834 18.6833 36.6667 20 36.6667C21.3167 36.6667 21.6667 35.0834 22.0833 34.1667C22.7 32.8167 23.25 31.65 24.0333 30.4C25.6333 27.85 27.7167 25.65 29.3 23.0667C30.8333 20.6167 31.6667 17.9 31.6667 15C31.6667 8.55004 26.45 3.33337 20 3.33337ZM20 19.5834C17.7 19.5834 15.8333 17.7167 15.8333 15.4167C15.8333 13.1167 17.7 11.25 20 11.25C22.3 11.25 24.1667 13.1167 24.1667 15.4167C24.1667 17.7167 22.3 19.5834 20 19.5834Z" fill="white"/>
</svg>
