<svg width="55" height="55" viewBox="0 0 55 55" fill="none" xmlns="http://www.w3.org/2000/svg">
<rect width="55" height="55" rx="20" fill="#4B5563"/>
<path d="M16.0417 36.875H20.2084V24.375H16.0417V36.875ZM38.9584 25.4167C38.9584 24.2709 38.0209 23.3334 36.875 23.3334H30.3021L31.2917 18.5729L31.3229 18.2396C31.3229 17.8125 31.1459 17.4167 30.8646 17.1354L29.7604 16.0417L22.9063 22.9063C22.5209 23.2813 22.2917 23.8021 22.2917 24.375V34.7917C22.2917 35.9375 23.2292 36.875 24.375 36.875H33.75C34.6146 36.875 35.3542 36.3542 35.6667 35.6042L38.8125 28.2604C38.9063 28.0209 38.9584 27.7709 38.9584 27.5V25.4167Z" fill="white"/>
</svg>
