<svg width="21" height="24" viewBox="0 0 21 24" fill="none" xmlns="http://www.w3.org/2000/svg">
<path d="M19.7908 5.05686C18.1408 4.89289 16.4908 4.76991 14.8306 4.67768V4.66743L14.6052 3.33517C14.4515 2.39234 14.226 0.978088 11.8279 0.978088H9.14291C6.75505 0.978088 6.52959 2.33085 6.36562 3.32492L6.15041 4.63669C5.19733 4.69818 4.24425 4.75966 3.29117 4.8519L1.20054 5.05686C0.770117 5.09785 0.462672 5.47704 0.503664 5.89721C0.544657 6.31739 0.913591 6.62483 1.34401 6.58384L3.43464 6.37888C8.80472 5.84597 14.2158 6.05093 19.6473 6.59409H19.7293C20.1187 6.59409 20.4569 6.29689 20.4979 5.89721C20.5286 5.47704 20.2212 5.09785 19.7908 5.05686Z" fill="white"/>
<path d="M17.905 8.03908C17.6591 7.78288 17.3209 7.6394 16.9724 7.6394H4.0188C3.67037 7.6394 3.32193 7.78288 3.08622 8.03908C2.85051 8.29529 2.71729 8.64373 2.73778 9.00241L3.37317 19.517C3.4859 21.0748 3.62937 23.0219 7.20599 23.0219H13.7853C17.3619 23.0219 17.5055 21.085 17.6181 19.517L18.2535 9.01266C18.274 8.64373 18.1407 8.29529 17.905 8.03908ZM12.1968 17.8876H8.78415C8.36403 17.8876 8.01559 17.5391 8.01559 17.119C8.01559 16.6988 8.36403 16.3504 8.78415 16.3504H12.1968C12.617 16.3504 12.9654 16.6988 12.9654 17.119C12.9654 17.5391 12.617 17.8876 12.1968 17.8876ZM13.0576 13.7883H7.93361C7.51343 13.7883 7.16499 13.4399 7.16499 13.0197C7.16499 12.5995 7.51343 12.2511 7.93361 12.2511H13.0576C13.4778 12.2511 13.8263 12.5995 13.8263 13.0197C13.8263 13.4399 13.4778 13.7883 13.0576 13.7883Z" fill="white"/>
</svg>
